<svg width="476" height="407" viewBox="0 0 476 407" fill="none" xmlns="http://www.w3.org/2000/svg">
<path d="M49.752 134.845C49.752 134.845 46.1437 132.044 50.5474 126.05C54.9512 120.055 62.9516 118.038 62.1562 122.845C61.3608 127.652 58.156 137.255 49.752 134.845Z" fill="#3FCFCF"/>
<path d="M55.3548 127.249C51.445 132.093 47.8339 137.171 44.5415 142.454L55.3548 127.249Z" fill="#3FCFCF"/>
<path d="M55.3548 127.249C51.445 132.093 47.8339 137.171 44.5415 142.454" stroke="#263238" stroke-linecap="round" stroke-linejoin="round"/>
<path d="M371.224 210.838C371.224 210.838 369.598 206.573 376.481 203.737C383.363 200.901 391.248 203.357 388.066 207.034C384.885 210.712 377.149 217.26 371.224 210.838Z" fill="#3FCFCF"/>
<path d="M379.962 207.253C374.106 209.364 368.381 211.823 362.82 214.62L379.962 207.253Z" fill="#3FCFCF"/>
<path d="M379.962 207.253C374.106 209.364 368.381 211.823 362.82 214.62" stroke="#263238" stroke-linecap="round" stroke-linejoin="round"/>
<path d="M445.602 318.049C445.602 318.049 440.991 317.934 440.991 310.487C440.991 303.04 446.202 296.653 448.415 301.023C450.629 305.392 453.787 314.983 445.602 318.049Z" fill="#3FCFCF"/>
<path d="M445.591 308.608C445.333 314.823 445.448 321.048 445.937 327.249L445.591 308.608Z" fill="#3FCFCF"/>
<path d="M445.591 308.608C445.333 314.823 445.448 321.048 445.937 327.249" stroke="#263238" stroke-linecap="round" stroke-linejoin="round"/>
<path d="M159.476 240.166C159.476 240.166 163.269 237.618 167.546 243.682C171.823 249.746 171.258 257.965 166.946 255.706C162.635 253.446 154.565 247.325 159.476 240.166Z" fill="#3FCFCF"/>
<path d="M164.94 247.809C161.563 242.597 157.875 237.592 153.896 232.823L164.94 247.809Z" fill="#3FCFCF"/>
<path d="M164.94 247.809C161.563 242.597 157.875 237.592 153.896 232.823" stroke="#263238" stroke-linecap="round" stroke-linejoin="round"/>
<path d="M14.5454 102.636C15.6733 99.1514 17.3045 95.8502 19.3872 92.8372C22.592 88.3298 31.9527 91.0619 31.9527 91.0619C34.512 91.2348 33.6012 105.449 25.3817 107.639C21.9233 108.573 26.7997 109.703 29.993 109.057C33.1862 108.412 40.2875 110.348 37.7168 114.21C35.146 118.072 28.0447 122.58 24.1828 122.58C19.5873 122.722 15.0707 121.362 11.3175 118.706C6.82157 115.49 2.97119 106.44 2.97119 100.676C2.97119 94.9123 8.75828 90.4163 14.5454 102.636Z" fill="#3FCFCF"/>
<path d="M20.5399 104.435C20.5399 104.435 8.93118 119.248 6.92529 126.038L20.5399 104.435Z" fill="#3FCFCF"/>
<path d="M20.5399 104.435C20.5399 104.435 8.93118 119.248 6.92529 126.038" stroke="#263238" stroke-linecap="round" stroke-linejoin="round"/>
<path d="M330.703 105.668C328.651 102.645 327.047 99.3403 325.942 95.8576C324.385 90.5431 332.305 84.8713 332.305 84.8713C334.011 82.9577 344.652 92.4453 341.308 100.261C339.867 103.604 343.81 100.423 345.286 97.4946C346.761 94.5664 352.64 90.1858 354.093 94.5895C355.546 98.9932 354.716 107.34 352.341 110.383C349.621 114.087 345.768 116.802 341.366 118.118C336.063 119.675 326.599 117.161 322.045 113.588C317.491 110.014 317.514 102.694 330.703 105.668Z" fill="#3FCFCF"/>
<path d="M335.821 102.071C335.821 102.071 340.317 120.332 344.433 126.107" stroke="#263238" stroke-linecap="round" stroke-linejoin="round"/>
<path d="M451.367 245.549C449.311 242.524 447.707 239.215 446.606 235.728C445.05 230.425 452.958 224.741 452.958 224.741C454.676 222.839 465.305 232.315 461.961 240.143C460.532 243.486 464.463 240.293 465.939 237.365C467.414 234.436 473.305 230.067 474.758 234.471C476.21 238.875 475.38 247.21 473.005 250.253C470.281 253.952 466.43 256.666 462.031 257.988C456.728 259.556 447.263 257.031 442.71 253.469C438.156 249.907 438.179 242.564 451.367 245.549Z" fill="#3FCFCF"/>
<path d="M456.485 241.941C456.485 241.941 460.981 260.213 465.097 265.977L456.485 241.941Z" fill="#3FCFCF"/>
<path d="M456.485 241.941C456.485 241.941 460.981 260.213 465.097 265.977" stroke="#263238" stroke-linecap="round" stroke-linejoin="round"/>
<path d="M173.437 32.1306C177.033 32.6958 180.527 33.7792 183.812 35.3469C188.758 37.8139 187.524 47.4744 187.524 47.4744C187.743 50.0336 173.564 51.3478 170.117 43.5664C168.653 40.2463 168.295 45.2956 169.437 48.3736C170.578 51.4516 169.759 58.7489 165.552 56.8006C161.344 54.8524 155.799 48.5696 155.176 44.7538C154.353 40.2515 155.012 35.6035 157.056 31.508C159.534 26.5625 167.823 21.3518 173.541 20.4526C179.259 19.5534 184.608 24.5105 173.437 32.1306Z" fill="#3FCFCF"/>
<path d="M172.584 38.3327C172.584 38.3327 156.156 29.1102 149.124 28.2456L172.584 38.3327Z" fill="#3FCFCF"/>
<path d="M172.584 38.3327C172.584 38.3327 156.156 29.1102 149.124 28.2456" stroke="#263238" stroke-linecap="round" stroke-linejoin="round"/>
<path d="M101.11 292.884C103.563 293.261 105.948 293.995 108.188 295.063C111.554 296.746 110.713 303.305 110.713 303.305C110.863 305.046 101.225 305.933 98.8849 300.654C97.8819 298.348 97.6514 301.806 98.4237 303.916C99.1961 306.026 98.6428 310.96 95.7838 309.68C92.9249 308.4 89.1552 304.089 88.7517 301.507C88.1613 298.441 88.5904 295.267 89.9737 292.469C91.6568 289.103 97.294 285.552 101.179 284.952C105.064 284.353 108.695 287.708 101.11 292.884Z" fill="#3FCFCF"/>
<path d="M100.533 297.091C100.533 297.091 89.3625 290.866 84.5898 290.244L100.533 297.091Z" fill="#3FCFCF"/>
<path d="M100.533 297.091C100.533 297.091 89.3625 290.866 84.5898 290.244" stroke="#263238" stroke-linecap="round" stroke-linejoin="round"/>
<path d="M13.2658 223.404C15.0902 221.704 17.1523 220.279 19.3872 219.173C22.8456 217.571 27.4568 222.286 27.4568 222.286C28.9209 223.231 23.6756 231.37 18.073 229.952C15.6752 229.341 18.2344 231.647 20.3786 232.327C22.5228 233.007 26.0619 236.5 23.2491 237.941C20.4363 239.382 14.7644 239.705 12.4704 238.425C9.69879 236.989 7.46935 234.691 6.11841 231.877C4.51601 228.488 5.20769 221.859 7.12135 218.424C9.035 214.989 13.8768 214.239 13.2658 223.404Z" fill="#3FCFCF"/>
<path d="M16.2286 226.459C16.2286 226.459 4.40078 231.405 1 234.782L16.2286 226.459Z" fill="#3FCFCF"/>
<path d="M16.2286 226.459C16.2286 226.459 4.40078 231.405 1 234.782" stroke="#263238" stroke-linecap="round" stroke-linejoin="round"/>
<path d="M444.646 97.6676C447.099 98.0518 449.483 98.7895 451.725 99.8579C455.091 101.541 454.249 108.101 454.249 108.101C454.399 109.841 444.762 110.729 442.421 105.449C441.418 103.143 441.188 106.602 441.96 108.711C442.733 110.821 442.179 115.755 439.32 114.476C436.461 113.196 432.692 108.884 432.288 106.291C431.7 103.225 432.129 100.052 433.51 97.2526C435.193 93.8979 440.831 90.3358 444.715 89.7478C448.6 89.1599 452.232 92.4915 444.646 97.6676Z" fill="#3FCFCF"/>
<path d="M444.069 101.887C444.069 101.887 432.899 95.6616 428.126 95.0391L444.069 101.887Z" fill="#3FCFCF"/>
<path d="M444.069 101.887C444.069 101.887 432.899 95.6616 428.126 95.0391" stroke="#263238" stroke-linecap="round" stroke-linejoin="round"/>
<path d="M37.9819 79.2687C37.9819 79.2687 45.4406 76.283 58.8708 79.2687C72.301 82.2545 84.9818 91.9496 105.133 94.9469C125.284 97.9442 137.965 91.2118 140.201 80.0181C142.438 68.8243 131.993 67.3372 125.215 72.5594C118.436 77.7816 125.215 86.7389 125.215 86.7389" stroke="#263238" stroke-width="0.75" stroke-linecap="round" stroke-linejoin="round" stroke-dasharray="2 2"/>
<path d="M101.398 102.406C101.398 102.406 111.105 106.129 127.521 102.406C143.937 98.682 145.424 80.018 158.105 70.3229C170.786 60.6278 181.242 71.0607 181.242 80.018C181.242 88.9753 174.521 90.4624 167.812 90.4624" stroke="#263238" stroke-width="0.75" stroke-linecap="round" stroke-linejoin="round" stroke-dasharray="2 2"/>
<path d="M288.821 275.522C288.821 275.522 298.516 271.05 311.209 282.981C323.901 294.913 338.818 308.343 358.958 306.856C379.098 305.369 387.317 287.431 404.425 283.73C421.532 280.03 429.786 290.44 429.786 297.161C429.786 303.882 418.593 312.827 412.621 306.118" stroke="#263238" stroke-width="0.75" stroke-linecap="round" stroke-linejoin="round" stroke-dasharray="2 2"/>
<path d="M264.935 290.44C264.935 290.44 289.559 282.981 302.24 293.426C314.921 303.87 326.114 319.548 344.767 319.548" stroke="#263238" stroke-width="0.75" stroke-linecap="round" stroke-linejoin="round" stroke-dasharray="2 2"/>
<path d="M229.094 407C251.301 407 269.304 404.517 269.304 401.455C269.304 398.393 251.301 395.91 229.094 395.91C206.887 395.91 188.884 398.393 188.884 401.455C188.884 404.517 206.887 407 229.094 407Z" fill="#3FCFCF"/>
<path d="M237.842 249.01C237.842 249.01 234.515 271.455 236.6 285.023C238.684 298.592 241.18 301.854 243.675 310.731C246.171 319.608 246.171 330.836 246.171 330.836L238.202 331.781C238.202 331.781 227.85 305.128 227.018 283.144C226.186 261.16 229.935 248.076 229.935 248.076L237.842 249.01Z" fill="white"/>
<path opacity="0.5" d="M237.842 249.01C237.842 249.01 234.515 271.455 236.6 285.023C238.684 298.592 241.18 301.854 243.675 310.731C246.171 319.608 246.171 330.836 246.171 330.836L238.202 331.781C238.202 331.781 227.85 305.128 227.018 283.144C226.186 261.16 229.935 248.076 229.935 248.076L237.842 249.01Z" fill="#3FCFCF" stroke="#263238" stroke-miterlimit="10"/>
<path d="M237.842 249.01C237.842 249.01 234.515 271.455 236.6 285.023C238.684 298.592 241.18 301.854 243.675 310.731C246.171 319.608 246.171 330.836 246.171 330.836L238.202 331.781C238.202 331.781 227.85 305.128 227.018 283.144C226.186 261.16 229.935 248.076 229.935 248.076L237.842 249.01Z" stroke="#263238" stroke-miterlimit="10"/>
<path d="M245.113 396.35C245.113 396.35 247.167 397.503 243.675 398.656C241.327 399.276 238.873 399.181 236.569 398.379C236.569 398.379 235.819 397.975 236.836 396.696C237.852 395.416 245.113 396.35 245.113 396.35Z" fill="#263238" stroke="#263238" stroke-miterlimit="10"/>
<path d="M248.81 328.853C248.81 328.853 247.044 325.625 233.632 327.597C225.591 328.749 224.461 327.816 223.845 332.104C223.229 336.392 229.914 376.602 230.007 379.369C229.958 381.976 229.117 384.485 227.624 386.482C226.597 387.75 219.018 393.03 216.051 393.203C213.083 393.376 212.107 395.508 212.179 397.065C212.251 398.621 216.492 399.958 222.448 399.624C228.405 399.289 235.963 396.915 237.853 396.811C239.742 396.707 242.505 398.056 245.123 396.396C247.742 394.736 244.733 387.623 244.035 384.338C243.337 381.052 246.869 357.5 248.523 346.191C250.176 334.882 249.19 331.262 248.81 328.853Z" fill="#3FCFCF" stroke="#263238" stroke-miterlimit="10"/>
<path opacity="0.1" d="M248.81 328.853C248.81 328.853 247.044 325.625 233.632 327.597C225.591 328.749 224.461 327.816 223.845 332.104C223.229 336.392 229.914 376.602 230.007 379.369C229.958 381.976 229.117 384.485 227.624 386.482C226.597 387.75 219.018 393.03 216.051 393.203C213.083 393.376 212.107 395.508 212.179 397.065C212.251 398.621 216.492 399.958 222.448 399.624C228.405 399.289 235.963 396.915 237.853 396.811C239.742 396.707 242.505 398.056 245.123 396.396C247.742 394.736 244.733 387.623 244.035 384.338C243.337 381.052 246.869 357.5 248.523 346.191C250.176 334.882 249.19 331.262 248.81 328.853Z" fill="black"/>
<path d="M248.81 328.853C248.81 328.853 247.044 325.625 233.632 327.597C225.591 328.749 224.461 327.816 223.845 332.104C223.229 336.392 229.914 376.602 230.007 379.369C229.958 381.976 229.117 384.485 227.624 386.482C226.597 387.75 219.018 393.03 216.051 393.203C213.083 393.376 212.107 395.508 212.179 397.065C212.251 398.621 216.492 399.958 222.448 399.624C228.405 399.289 235.963 396.915 237.853 396.811C239.742 396.707 242.505 398.056 245.123 396.396C247.742 394.736 244.733 387.623 244.035 384.338C243.337 381.052 246.869 357.5 248.523 346.191C250.176 334.882 249.19 331.262 248.81 328.853Z" stroke="#263238" stroke-miterlimit="10"/>
<path d="M242.299 247.453C239.216 254.215 237.227 261.538 236.425 269.08C235.315 281 234.473 291.652 237.544 299.18C240.615 306.708 242.299 317.682 241.734 322.386C241.334 325.551 240.775 328.687 240.06 331.781L223.023 333.061C223.023 333.061 220.23 310.8 215.198 297.946C210.166 285.093 208.225 262.832 208.225 253.748C208.149 249.347 208.334 244.945 208.779 240.571L243.973 242.773L242.299 247.453Z" fill="white"/>
<g style="mix-blend-mode:multiply" opacity="0.5">
<path d="M243.973 242.75L242.299 247.454C239.216 254.215 237.227 261.538 236.425 269.08C235.315 281 234.473 291.652 237.544 299.18C240.615 306.708 242.299 317.682 241.734 322.386C241.355 325.401 240.83 328.392 240.163 331.343H236.969C238.189 326.836 238.563 322.095 238.068 317.417C237.246 309.682 233.108 301.647 232.009 285.865C231.482 275.819 232.988 265.769 236.414 256.468C230.386 257.41 224.313 257.941 218.227 258.059C214.836 257.998 211.474 257.357 208.255 256.157C208.255 255.27 208.255 254.451 208.255 253.725C208.18 249.324 208.365 244.922 208.81 240.548L243.973 242.75Z" fill="#3FCFCF"/>
</g>
<path d="M242.299 247.453C239.216 254.215 237.227 261.538 236.425 269.08C235.315 281 234.473 291.652 237.544 299.18C240.615 306.708 242.299 317.682 241.734 322.386C241.334 325.551 240.775 328.687 240.06 331.781L223.023 333.061C223.023 333.061 220.23 310.8 215.198 297.946C210.166 285.093 208.225 262.832 208.225 253.748C208.149 249.347 208.334 244.945 208.779 240.571L243.973 242.773L242.299 247.453Z" stroke="#263238" stroke-miterlimit="10"/>
<path d="M224.05 251.742C224.05 251.742 222.756 264.065 222.756 274.694C222.722 280.879 223.374 287.044 224.697 293.047" stroke="#263238" stroke-linecap="round" stroke-linejoin="round"/>
<path d="M225.776 296.92C225.776 296.92 229.883 307.549 230.51 312.622" stroke="#263238" stroke-linecap="round" stroke-linejoin="round"/>
<path d="M219.819 77.1955C219.819 77.1955 215.075 73.887 218.525 70.0136C221.976 66.1401 234.33 63.8806 246.407 74.2098C258.484 84.5389 253.02 93.5654 251.87 99.0527C250.72 104.54 251.583 106.154 260.199 114.858C268.815 123.561 264.512 136.162 258.474 143.251C252.435 150.341 237.74 154.226 229.452 153.223C221.165 152.22 216.8 157.419 213.637 161.293C210.474 165.166 203.871 164.832 200.133 164.186C196.395 163.541 191.527 163.598 184.04 169.362C176.554 175.126 167.609 171.668 161.612 164.843C155.615 158.019 160.472 147.102 156.477 146.456C152.482 145.811 151.589 146.133 152.164 142.26C152.302 141.288 152.65 140.369 153.179 139.584C153.707 138.798 154.4 138.171 155.195 137.756C155.99 137.342 156.864 137.153 157.739 137.207C158.615 137.26 159.465 137.555 160.215 138.064C163.943 140.369 170.557 145.488 174.295 140.969C178.033 136.45 172.241 126.778 181.771 119.065C191.301 111.353 196.148 119.065 204.477 119.065C212.805 119.065 217.981 115.838 219.131 110.039C220.281 104.24 217.694 98.0959 216.831 91.963C215.968 85.8301 219.819 77.1955 219.819 77.1955Z" fill="#263238" stroke="#263238" stroke-miterlimit="10"/>
<path d="M219.819 77.1956C219.819 77.1956 225.261 73.5412 230.252 82.095C235.243 90.6488 229.667 97.2428 237.585 108.437C245.503 119.63 262.807 119.63 261.348 131.158C259.89 142.686 252.835 139.724 252.835 139.724" stroke="white" stroke-width="0.75" stroke-linecap="round" stroke-linejoin="round"/>
<path d="M232.009 75.8467C232.009 75.8467 239.639 80.458 239.639 88.3547C239.639 96.2514 235.829 99.2141 239.937 105.151C244.045 111.088 246.674 111.722 246.674 111.722" stroke="white" stroke-width="0.75" stroke-linecap="round" stroke-linejoin="round"/>
<path d="M247.557 123.25C247.557 123.25 256.358 130.501 254.602 135.112C252.846 139.724 249.323 136.749 249.323 136.749" stroke="white" stroke-width="0.75" stroke-linecap="round" stroke-linejoin="round"/>
<path d="M190.654 122.27C190.654 122.27 180.98 121.936 180.097 131.493C179.214 141.049 180.98 147.632 175.404 148.623C169.827 149.615 164.549 142.029 160.739 142.029" stroke="white" stroke-width="0.75" stroke-linecap="round" stroke-linejoin="round"/>
<path d="M182.438 148.935C182.438 148.935 181.565 152.232 176.872 153.546C172.179 154.86 170.125 149.269 166.017 147.955" stroke="white" stroke-width="0.75" stroke-linecap="round" stroke-linejoin="round"/>
<path d="M219.819 77.1956C217.538 78.6206 215.391 80.3007 213.411 82.2103C211.459 84.3891 210.689 87.444 209.303 88.5276C207.916 89.6113 203.675 90.2799 203.675 91.1445C203.675 92.0091 205.421 94.6029 205.421 94.6029C205.421 94.6029 203.675 102.235 203.09 104.413C202.504 106.592 202.114 109.025 203.87 110.085C206.361 111.654 209.168 112.48 212.024 112.483L216.296 112.702V122.293C216.296 126.651 214.55 135.597 214.55 135.597L226.442 128.876C226.442 128.876 225.857 121.244 225.857 118.189C225.976 115.194 226.237 112.208 226.638 109.244C226.638 109.244 232.851 108.379 232.265 103.572C231.762 99.3755 228.158 100.736 227.028 100.736H225.857C225.857 100.736 226.247 96.8163 225.272 94.8565C224.296 92.8968 220.609 91.1445 220.034 87.0059C219.683 83.7511 219.611 80.4659 219.819 77.1956Z" fill="white"/>
<g style="mix-blend-mode:multiply" opacity="0.5">
<path d="M221.811 107.399C225.919 102.788 224.019 98.73 222.088 95.0179C220.893 92.5466 220.192 89.8124 220.034 87.0059C220.609 91.1445 224.306 92.8852 225.272 94.8565C226.237 96.8278 225.857 100.736 225.857 100.736H227.028C228.188 100.736 231.762 99.3755 232.265 103.572C232.851 108.379 226.638 109.244 226.638 109.244C226.237 112.208 225.976 115.194 225.857 118.189C225.857 120.068 226.083 123.677 226.247 126.178C223.608 124.61 219.942 122.397 216.337 120.091V112.737L212.065 112.518C209.209 112.514 206.402 111.689 203.911 110.12C204.158 106.961 217.672 112.033 221.811 107.399Z" fill="#3FCFCF"/>
</g>
<path d="M219.819 77.1956C217.538 78.6206 215.391 80.3007 213.411 82.2103C211.459 84.3891 210.689 87.444 209.303 88.5276C207.916 89.6113 203.675 90.2799 203.675 91.1445C203.675 92.0091 205.421 94.6029 205.421 94.6029C205.421 94.6029 203.675 102.235 203.09 104.413C202.504 106.592 202.114 109.025 203.87 110.085C206.361 111.654 209.168 112.48 212.024 112.483L216.296 112.702V122.293C216.296 126.651 214.55 135.597 214.55 135.597L226.442 128.876C226.442 128.876 225.857 121.244 225.857 118.189C225.976 115.194 226.237 112.208 226.638 109.244C226.638 109.244 232.851 108.379 232.265 103.572C231.762 99.3755 228.158 100.736 227.028 100.736H225.857C225.857 100.736 226.247 96.8163 225.272 94.8565C224.296 92.8968 220.609 91.1445 220.034 87.0059C219.683 83.7511 219.611 80.4659 219.819 77.1956V77.1956Z" stroke="#263238" stroke-miterlimit="10"/>
<path d="M214.181 87.6631L212.066 90.2799C212.066 90.2799 213.041 92.0207 214.397 92.0207" stroke="#263238" stroke-width="0.75" stroke-linecap="round" stroke-linejoin="round"/>
<path d="M214.962 84.6081C215.225 84.4569 215.516 84.3773 215.812 84.3755C216.108 84.3738 216.4 84.45 216.664 84.598C216.929 84.746 217.159 84.9617 217.336 85.2278C217.513 85.4938 217.632 85.8028 217.683 86.1298" stroke="#263238" stroke-width="0.75" stroke-linecap="round" stroke-linejoin="round"/>
<path d="M206.027 99.6523C206.581 100.196 207.245 100.579 207.961 100.768C208.677 100.957 209.424 100.946 210.135 100.736" stroke="#263238" stroke-width="0.75" stroke-linecap="round" stroke-linejoin="round"/>
<path d="M236.713 398.875C236.713 398.875 238.767 400.223 235.111 401.18C232.65 401.685 230.114 401.438 227.768 400.465C227.768 400.465 227.008 400.004 228.127 398.759C229.247 397.514 236.713 398.875 236.713 398.875Z" fill="#263238" stroke="#263238" stroke-miterlimit="10"/>
<path d="M243.686 329.28C243.686 329.28 242.012 325.821 228.045 327.089C219.676 327.839 218.556 326.767 217.714 331.159C216.872 335.551 221.904 377.559 221.904 380.383C221.734 383.073 220.748 385.616 219.111 387.589C217.991 388.845 209.868 393.86 206.787 393.86C203.706 393.86 202.597 396.062 202.597 397.629C202.597 399.197 206.921 400.88 213.072 400.88C219.224 400.88 227.172 398.875 229.123 398.875C231.075 398.875 233.878 400.442 236.672 398.875C239.465 397.307 236.672 389.79 236.107 386.344C235.542 382.897 240.297 358.745 242.535 347.148C244.774 335.551 243.973 331.781 243.686 329.28Z" fill="#3FCFCF" stroke="#263238" stroke-miterlimit="10"/>
<path opacity="0.1" d="M243.686 329.28C243.686 329.28 242.012 325.821 228.045 327.089C219.676 327.839 218.556 326.767 217.714 331.159C216.872 335.551 221.904 377.559 221.904 380.383C221.734 383.073 220.748 385.616 219.111 387.589C217.991 388.845 209.868 393.86 206.787 393.86C203.706 393.86 202.597 396.062 202.597 397.629C202.597 399.197 206.921 400.88 213.072 400.88C219.224 400.88 227.172 398.875 229.123 398.875C231.075 398.875 233.878 400.442 236.672 398.875C239.465 397.307 236.672 389.79 236.107 386.344C235.542 382.897 240.297 358.745 242.535 347.148C244.774 335.551 243.973 331.781 243.686 329.28Z" fill="black"/>
<path d="M243.686 329.28C243.686 329.28 242.012 325.821 228.045 327.089C219.676 327.839 218.556 326.767 217.714 331.159C216.872 335.551 221.904 377.559 221.904 380.383C221.734 383.073 220.748 385.616 219.111 387.589C217.991 388.845 209.868 393.86 206.787 393.86C203.706 393.86 202.597 396.062 202.597 397.629C202.597 399.197 206.921 400.88 213.072 400.88C219.224 400.88 227.172 398.875 229.123 398.875C231.075 398.875 233.878 400.442 236.672 398.875C239.465 397.307 236.672 389.79 236.107 386.344C235.542 382.897 240.297 358.745 242.535 347.148C244.774 335.551 243.973 331.781 243.686 329.28Z" stroke="#263238" stroke-miterlimit="10"/>
<path d="M208.163 149.154C208.163 149.154 203.696 161.143 203.891 165.074C204.086 169.005 210.053 183.392 210.053 185.133C210.053 186.873 195.09 244.007 195.09 244.007C195.09 244.007 211.993 250.116 227.336 250.762C237.063 251.024 246.748 249.249 255.896 245.528L243.901 180.775L244.876 150.237C244.876 150.237 240.019 131.919 231.526 130.64C223.033 129.36 209.909 145.661 208.163 149.154Z" fill="#3FCFCF" stroke="#263238" stroke-miterlimit="10"/>
<path opacity="0.1" d="M208.163 149.154C208.163 149.154 203.696 161.143 203.891 165.074C204.086 169.005 210.053 183.392 210.053 185.133C210.053 186.873 195.09 244.007 195.09 244.007C195.09 244.007 211.993 250.116 227.336 250.762C237.063 251.024 246.748 249.249 255.896 245.528L243.901 180.775L244.876 150.237C244.876 150.237 240.019 131.919 231.526 130.64C223.033 129.36 209.909 145.661 208.163 149.154Z" fill="#263238"/>
<path d="M211.111 139.966C211.111 139.966 210.228 141.937 205.843 140.289C201.458 138.64 201.006 136.83 197.494 137.833C193.981 138.836 192.811 140.139 190.038 139.966C187.265 139.793 186.813 138.974 186.813 138.974C186.813 138.974 185.643 138.317 186.084 139.47C186.526 140.623 188.569 141.119 191.219 141.119C193.868 141.119 196.354 139.147 199.116 138.974C201.879 138.802 203.224 141.119 206.14 141.937C207.43 142.359 208.755 142.634 210.094 142.756L211.111 139.966Z" fill="#3FCFCF" stroke="#263238" stroke-width="0.5" stroke-miterlimit="10"/>
<path opacity="0.1" d="M211.111 139.966C211.111 139.966 210.228 141.937 205.843 140.289C201.458 138.64 201.006 136.83 197.494 137.833C193.981 138.836 192.811 140.139 190.038 139.966C187.265 139.793 186.813 138.974 186.813 138.974C186.813 138.974 185.643 138.317 186.084 139.47C186.526 140.623 188.569 141.119 191.219 141.119C193.868 141.119 196.354 139.147 199.116 138.974C201.879 138.802 203.224 141.119 206.14 141.937C207.43 142.359 208.755 142.634 210.094 142.756L211.111 139.966Z" fill="black"/>
<path d="M211.111 139.966C211.111 139.966 210.228 141.937 205.843 140.289C201.458 138.64 201.006 136.83 197.494 137.833C193.981 138.836 192.811 140.139 190.038 139.966C187.265 139.793 186.813 138.974 186.813 138.974C186.813 138.974 185.643 138.317 186.084 139.47C186.526 140.623 188.569 141.119 191.219 141.119C193.868 141.119 196.354 139.147 199.116 138.974C201.879 138.802 203.224 141.119 206.14 141.937C207.43 142.359 208.755 142.634 210.094 142.756L211.111 139.966Z" stroke="#263238" stroke-width="0.5" stroke-miterlimit="10"/>
<path d="M209.201 147.851C209.201 147.851 208.615 149.004 204.816 151.955C201.016 154.906 196.323 151.632 193.108 152.289C193.082 152.059 193.1 151.825 193.161 151.604C193.223 151.382 193.326 151.178 193.465 151.006C193.604 150.834 193.774 150.698 193.964 150.607C194.155 150.516 194.36 150.472 194.567 150.479C196.179 150.479 197.35 152.785 202.033 151.298C206.715 149.811 209.057 144.404 209.201 147.851Z" fill="#3FCFCF" stroke="#263238" stroke-width="0.5" stroke-miterlimit="10"/>
<path opacity="0.1" d="M209.201 147.851C209.201 147.851 208.615 149.004 204.816 151.955C201.016 154.906 196.323 151.632 193.108 152.289C193.082 152.059 193.1 151.825 193.161 151.604C193.223 151.382 193.326 151.178 193.465 151.006C193.604 150.834 193.774 150.698 193.964 150.607C194.155 150.516 194.36 150.472 194.567 150.479C196.179 150.479 197.35 152.785 202.033 151.298C206.715 149.811 209.057 144.404 209.201 147.851Z" fill="black"/>
<path d="M209.201 147.851C209.201 147.851 208.615 149.004 204.816 151.955C201.016 154.906 196.323 151.632 193.108 152.289C193.082 152.059 193.1 151.825 193.161 151.604C193.223 151.382 193.326 151.178 193.465 151.006C193.604 150.834 193.774 150.698 193.964 150.607C194.155 150.516 194.36 150.472 194.567 150.479C196.179 150.479 197.35 152.785 202.033 151.298C206.715 149.811 209.057 144.404 209.201 147.851Z" stroke="#263238" stroke-width="0.5" stroke-miterlimit="10"/>
<path d="M190.623 150.917C190.623 150.575 190.714 150.24 190.884 149.956C191.053 149.671 191.295 149.449 191.577 149.319C191.859 149.188 192.169 149.155 192.468 149.222C192.767 149.29 193.042 149.456 193.257 149.699C193.472 149.942 193.617 150.251 193.676 150.587C193.734 150.923 193.702 151.271 193.584 151.587C193.466 151.903 193.267 152.172 193.012 152.361C192.757 152.549 192.458 152.649 192.153 152.647C191.952 152.647 191.752 152.602 191.565 152.515C191.379 152.428 191.21 152.3 191.068 152.14C190.926 151.979 190.813 151.788 190.737 151.578C190.66 151.369 190.622 151.144 190.623 150.917Z" fill="#3FCFCF" stroke="#263238" stroke-width="0.5" stroke-miterlimit="10"/>
<path opacity="0.1" d="M190.623 150.917C190.623 150.575 190.714 150.24 190.884 149.956C191.053 149.671 191.295 149.449 191.577 149.319C191.859 149.188 192.169 149.155 192.468 149.222C192.767 149.29 193.042 149.456 193.257 149.699C193.472 149.942 193.617 150.251 193.676 150.587C193.734 150.923 193.702 151.271 193.584 151.587C193.466 151.903 193.267 152.172 193.012 152.361C192.757 152.549 192.458 152.649 192.153 152.647C191.952 152.647 191.752 152.602 191.565 152.515C191.379 152.428 191.21 152.3 191.068 152.14C190.926 151.979 190.813 151.788 190.737 151.578C190.66 151.369 190.622 151.144 190.623 150.917Z" fill="black"/>
<path d="M190.623 150.917C190.623 150.575 190.714 150.24 190.884 149.956C191.053 149.671 191.295 149.449 191.577 149.319C191.859 149.188 192.169 149.155 192.468 149.222C192.767 149.29 193.042 149.456 193.257 149.699C193.472 149.942 193.617 150.251 193.676 150.587C193.734 150.923 193.702 151.271 193.584 151.587C193.466 151.903 193.267 152.172 193.012 152.361C192.757 152.549 192.458 152.649 192.153 152.647C191.952 152.647 191.752 152.602 191.565 152.515C191.379 152.428 191.21 152.3 191.068 152.14C190.926 151.979 190.813 151.788 190.737 151.578C190.66 151.369 190.622 151.144 190.623 150.917Z" stroke="#263238" stroke-width="0.5" stroke-miterlimit="10"/>
<path d="M184.03 139.055C184.03 138.713 184.12 138.379 184.29 138.094C184.459 137.81 184.699 137.588 184.981 137.458C185.262 137.327 185.572 137.292 185.871 137.359C186.17 137.426 186.444 137.591 186.66 137.832C186.875 138.074 187.022 138.382 187.081 138.718C187.141 139.053 187.11 139.401 186.994 139.717C186.877 140.033 186.68 140.303 186.426 140.493C186.173 140.683 185.875 140.784 185.57 140.784C185.162 140.784 184.77 140.602 184.481 140.278C184.192 139.954 184.03 139.514 184.03 139.055Z" fill="#3FCFCF" stroke="#263238" stroke-width="0.5" stroke-miterlimit="10"/>
<path opacity="0.1" d="M184.03 139.055C184.03 138.713 184.12 138.379 184.29 138.094C184.459 137.81 184.699 137.588 184.981 137.458C185.262 137.327 185.572 137.292 185.871 137.359C186.17 137.426 186.444 137.591 186.66 137.832C186.875 138.074 187.022 138.382 187.081 138.718C187.141 139.053 187.11 139.401 186.994 139.717C186.877 140.033 186.68 140.303 186.426 140.493C186.173 140.683 185.875 140.784 185.57 140.784C185.162 140.784 184.77 140.602 184.481 140.278C184.192 139.954 184.03 139.514 184.03 139.055Z" fill="black"/>
<path d="M184.03 139.055C184.03 138.713 184.12 138.379 184.29 138.094C184.459 137.81 184.699 137.588 184.981 137.458C185.262 137.327 185.572 137.292 185.871 137.359C186.17 137.426 186.444 137.591 186.66 137.832C186.875 138.074 187.022 138.382 187.081 138.718C187.141 139.053 187.11 139.401 186.994 139.717C186.877 140.033 186.68 140.303 186.426 140.493C186.173 140.683 185.875 140.784 185.57 140.784C185.162 140.784 184.77 140.602 184.481 140.278C184.192 139.954 184.03 139.514 184.03 139.055V139.055Z" stroke="#263238" stroke-width="0.5" stroke-miterlimit="10"/>
<path d="M208.163 147.194C208.608 143.082 210.246 139.25 212.826 136.288C217.098 131.493 223.506 128 227.973 125.164C232.44 122.328 236.907 122.328 240.019 124.507C243.131 126.686 248.173 137.372 252.065 141.522C255.957 145.672 257.118 148.059 253.616 150.894C250.114 153.73 247.793 153.511 243.511 150.018C239.228 146.525 236.712 134.974 232.214 134.11C227.716 133.245 220.374 136.288 216.286 140.208C212.199 144.127 208.523 150.018 208.132 149.154C207.923 148.519 207.934 147.82 208.163 147.194Z" fill="#3FCFCF" stroke="#263238" stroke-miterlimit="10"/>
<path opacity="0.1" d="M208.163 147.194C208.608 143.082 210.246 139.25 212.826 136.288C217.098 131.493 223.506 128 227.973 125.164C232.44 122.328 236.907 122.328 240.019 124.507C243.131 126.686 248.173 137.372 252.065 141.522C255.957 145.672 257.118 148.059 253.616 150.894C250.114 153.73 247.793 153.511 243.511 150.018C239.228 146.525 236.712 134.974 232.214 134.11C227.716 133.245 220.374 136.288 216.286 140.208C212.199 144.127 208.523 150.018 208.132 149.154C207.923 148.519 207.934 147.82 208.163 147.194Z" fill="black"/>
<path d="M208.163 147.194C208.608 143.082 210.246 139.25 212.826 136.288C217.098 131.493 223.506 128 227.973 125.164C232.44 122.328 236.907 122.328 240.019 124.507C243.131 126.686 248.173 137.372 252.065 141.522C255.957 145.672 257.118 148.059 253.616 150.894C250.114 153.73 247.793 153.511 243.511 150.018C239.228 146.525 236.712 134.974 232.214 134.11C227.716 133.245 220.374 136.288 216.286 140.208C212.199 144.127 208.523 150.018 208.132 149.154C207.923 148.519 207.934 147.82 208.163 147.194V147.194Z" stroke="#263238" stroke-miterlimit="10"/>
<path d="M230.304 141.303C230.304 141.303 234.001 139.124 238.078 142.825C242.155 146.525 255.536 168.994 259.254 174.446C262.971 179.899 264.686 181.859 263.526 185.571C262.366 189.283 244.682 210.206 243.511 212.166C242.643 213.567 241.671 214.882 240.605 216.097L235.747 216.316L230.694 210.863C232.44 206.145 234.45 201.555 236.712 197.122C240.409 189.928 244.291 183.173 244.291 183.173C244.291 183.173 226.227 160.267 224.872 154.826C224.072 151.445 224.205 147.871 225.252 144.577" fill="#3FCFCF"/>
<path d="M230.304 141.303C230.304 141.303 234.001 139.124 238.078 142.825C242.155 146.525 255.536 168.994 259.254 174.446C262.971 179.899 264.686 181.859 263.526 185.571C262.366 189.283 244.682 210.206 243.511 212.166C242.643 213.567 241.671 214.882 240.605 216.097L235.747 216.316L230.694 210.863C232.44 206.145 234.45 201.555 236.712 197.122C240.409 189.928 244.291 183.173 244.291 183.173C244.291 183.173 226.227 160.267 224.872 154.826C224.072 151.445 224.205 147.871 225.252 144.577" stroke="#263238" stroke-miterlimit="10"/>
<path opacity="0.1" d="M230.304 141.303C230.304 141.303 234.001 139.124 238.078 142.825C242.155 146.525 255.536 168.994 259.254 174.446C262.971 179.899 264.686 181.859 263.526 185.571C262.366 189.283 244.682 210.206 243.511 212.166C242.643 213.567 241.671 214.882 240.605 216.097L235.747 216.316L230.694 210.863C232.44 206.145 234.45 201.555 236.712 197.122C240.409 189.928 244.291 183.173 244.291 183.173C244.291 183.173 226.227 160.267 224.872 154.826C224.072 151.445 224.205 147.871 225.252 144.577" fill="black"/>
<path d="M230.304 141.303C230.304 141.303 234.001 139.124 238.078 142.825C242.155 146.525 255.536 168.994 259.254 174.446C262.971 179.899 264.686 181.859 263.526 185.571C262.366 189.283 244.682 210.206 243.511 212.166C242.643 213.567 241.671 214.882 240.605 216.097L235.747 216.316L230.694 210.863C232.44 206.145 234.45 201.555 236.712 197.122C240.409 189.928 244.291 183.173 244.291 183.173C244.291 183.173 226.227 160.267 224.872 154.826C224.072 151.445 224.205 147.871 225.252 144.577" stroke="#263238" stroke-miterlimit="10"/>
<path d="M230.694 210.863L226.422 216.535C226.422 216.535 232.831 216.973 235.747 216.316L230.694 210.863Z" fill="white" stroke="#263238" stroke-miterlimit="10"/>
<path d="M223.896 216.316H218.649C218.649 216.316 216.122 230.922 216.903 237.251" stroke="#263238" stroke-linecap="round" stroke-linejoin="round"/>
<path d="M242.679 230.703C242.679 231.764 242.741 232.79 242.741 233.758" stroke="#263238" stroke-linecap="round" stroke-linejoin="round"/>
<path d="M241.57 216.973C241.57 216.973 242.237 222.195 242.597 228.086" stroke="#263238" stroke-linecap="round" stroke-linejoin="round"/>
<path d="M235.479 181.974C232.855 184.535 229.478 185.915 226.001 185.848" stroke="#263238" stroke-linecap="round" stroke-linejoin="round"/>
<path d="M231.177 188.43C228.211 189.164 225.121 188.941 222.263 187.784" stroke="#263238" stroke-linecap="round" stroke-linejoin="round"/>
<path d="M221.975 156.163C221.975 156.163 221.4 161.005 228.301 161.927" stroke="#263238" stroke-linecap="round" stroke-linejoin="round"/>
<path d="M229.164 163.598C229.164 163.598 225.426 165.535 223.126 164.567" stroke="#263238" stroke-linecap="round" stroke-linejoin="round"/>
<path d="M254.94 240.836C254.94 240.836 242.33 245.632 229.719 246.082" stroke="#263238" stroke-linecap="round" stroke-linejoin="round"/>
<path d="M224.841 246.047C224.841 246.047 217.313 245.597 212.836 244.687" stroke="#263238" stroke-linecap="round" stroke-linejoin="round"/>
<path d="M208.359 243.315C204.634 242.771 200.96 241.853 197.381 240.571" stroke="#263238" stroke-linecap="round" stroke-linejoin="round"/>
<path d="M244.291 183.196C244.624 182.065 245.161 181.023 245.867 180.135C246.574 179.246 247.436 178.53 248.399 178.031" stroke="#263238" stroke-linecap="round" stroke-linejoin="round"/>
<path d="M232.245 134.11C232.245 134.11 239.208 134.663 241.672 137.672C244.137 140.681 248.46 145.741 248.46 145.741" stroke="#263238" stroke-linecap="round" stroke-linejoin="round"/>
</svg>
